<?xml version="1.0" encoding="UTF-8" standalone="no"?>
<!DOCTYPE svg PUBLIC "-//W3C//DTD SVG 1.1//EN"
 "http://www.w3.org/Graphics/SVG/1.1/DTD/svg11.dtd">
<!-- Generated by graphviz version 2.38.0 (20140413.2041)
 -->
<!-- Title: Ogre::GpuProgram Pages: 1 -->
<svg width="750pt" height="458pt"
 viewBox="0.00 0.00 750.00 457.50" xmlns="http://www.w3.org/2000/svg" xmlns:xlink="http://www.w3.org/1999/xlink">
<g id="graph0" class="graph" transform="scale(1 1) rotate(0) translate(4 453.5)">
<title>Ogre::GpuProgram</title>
<!-- Node1 -->
<g id="node1" class="node"><title>Node1</title>
<polygon fill="#bfbfbf" stroke="black" points="265,-325 265,-344 363,-344 363,-325 265,-325"/>
<text text-anchor="middle" x="314" y="-332" font-family="Helvetica,sans-Serif" font-size="10.00">Ogre::GpuProgram</text>
</g>
<!-- Node5 -->
<g id="node5" class="node"><title>Node5</title>
<g id="a_node5"><a xlink:href="class_ogre_1_1_d3_d9_gpu_program.html" target="_top" xlink:title="Direct3D implementation of a few things common to low&#45;level vertex &amp; fragment programs. ">
<polygon fill="none" stroke="black" points="408,-392 408,-411 532,-411 532,-392 408,-392"/>
<text text-anchor="middle" x="470" y="-399" font-family="Helvetica,sans-Serif" font-size="10.00">Ogre::D3D9GpuProgram</text>
</a>
</g>
</g>
<!-- Node1&#45;&gt;Node5 -->
<g id="edge4" class="edge"><title>Node1&#45;&gt;Node5</title>
<path fill="none" stroke="midnightblue" d="M346.622,-348.258C376.549,-361.278 420.693,-380.483 446.976,-391.918"/>
<polygon fill="midnightblue" stroke="midnightblue" points="347.631,-344.88 337.064,-344.099 344.838,-351.298 347.631,-344.88"/>
</g>
<!-- Node8 -->
<g id="node8" class="node"><title>Node8</title>
<g id="a_node8"><a xlink:href="class_ogre_1_1_g_l_e_s2_gpu_program.html" target="_top" xlink:title="Generalised low&#45;level GL program, can be applied to multiple types (eg ARB and NV) ...">
<polygon fill="none" stroke="black" points="405,-335 405,-354 535,-354 535,-335 405,-335"/>
<text text-anchor="middle" x="470" y="-342" font-family="Helvetica,sans-Serif" font-size="10.00">Ogre::GLES2GpuProgram</text>
</a>
</g>
</g>
<!-- Node1&#45;&gt;Node8 -->
<g id="edge7" class="edge"><title>Node1&#45;&gt;Node8</title>
<path fill="none" stroke="midnightblue" d="M373.376,-338.291C383.634,-338.957 394.361,-339.653 404.768,-340.329"/>
<polygon fill="midnightblue" stroke="midnightblue" points="373.51,-334.792 363.304,-337.637 373.056,-341.777 373.51,-334.792"/>
</g>
<!-- Node10 -->
<g id="node10" class="node"><title>Node10</title>
<g id="a_node10"><a xlink:href="class_ogre_1_1_g_l_gpu_program.html" target="_top" xlink:title="Generalised low&#45;level GL program, can be applied to multiple types (eg ARB and NV) ...">
<polygon fill="none" stroke="black" points="414.5,-287 414.5,-306 525.5,-306 525.5,-287 414.5,-287"/>
<text text-anchor="middle" x="470" y="-294" font-family="Helvetica,sans-Serif" font-size="10.00">Ogre::GLGpuProgram</text>
</a>
</g>
</g>
<!-- Node1&#45;&gt;Node10 -->
<g id="edge9" class="edge"><title>Node1&#45;&gt;Node10</title>
<path fill="none" stroke="midnightblue" d="M363.794,-322.46C385.308,-317.151 410.232,-311.001 430.419,-306.02"/>
<polygon fill="midnightblue" stroke="midnightblue" points="362.731,-319.117 353.861,-324.911 364.408,-325.913 362.731,-319.117"/>
</g>
<!-- Node14 -->
<g id="node14" class="node"><title>Node14</title>
<g id="a_node14"><a xlink:href="class_ogre_1_1_high_level_gpu_program.html" target="_top" xlink:title="Abstract base class representing a high&#45;level program (a vertex or fragment program). ">
<polygon fill="none" stroke="black" points="399,-126 399,-145 541,-145 541,-126 399,-126"/>
<text text-anchor="middle" x="470" y="-133" font-family="Helvetica,sans-Serif" font-size="10.00">Ogre::HighLevelGpuProgram</text>
</a>
</g>
</g>
<!-- Node1&#45;&gt;Node14 -->
<g id="edge13" class="edge"><title>Node1&#45;&gt;Node14</title>
<path fill="none" stroke="midnightblue" d="M328.593,-316.935C360.137,-276.174 437.462,-176.253 461.647,-145.002"/>
<polygon fill="midnightblue" stroke="midnightblue" points="325.78,-314.851 322.428,-324.902 331.316,-319.135 325.78,-314.851"/>
</g>
<!-- Node2 -->
<g id="node2" class="node"><title>Node2</title>
<g id="a_node2"><a xlink:href="class_ogre_1_1_resource.html" target="_top" xlink:title="Abstract class representing a loadable resource (e.g. ">
<polygon fill="none" stroke="black" points="143,-325 143,-344 229,-344 229,-325 143,-325"/>
<text text-anchor="middle" x="186" y="-332" font-family="Helvetica,sans-Serif" font-size="10.00">Ogre::Resource</text>
</a>
</g>
</g>
<!-- Node2&#45;&gt;Node1 -->
<g id="edge1" class="edge"><title>Node2&#45;&gt;Node1</title>
<path fill="none" stroke="midnightblue" d="M239.441,-334.5C247.889,-334.5 256.599,-334.5 264.938,-334.5"/>
<polygon fill="midnightblue" stroke="midnightblue" points="239.307,-331 229.307,-334.5 239.307,-338 239.307,-331"/>
</g>
<!-- Node3 -->
<g id="node3" class="node"><title>Node3</title>
<g id="a_node3"><a xlink:href="class_ogre_1_1_string_interface.html" target="_top" xlink:title="Class defining the common interface which classes can use to present a reflection&#45;style, self&#45;defining parameter set to callers. ">
<polygon fill="none" stroke="black" points="0,-344 0,-363 107,-363 107,-344 0,-344"/>
<text text-anchor="middle" x="53.5" y="-351" font-family="Helvetica,sans-Serif" font-size="10.00">Ogre::StringInterface</text>
</a>
</g>
</g>
<!-- Node3&#45;&gt;Node2 -->
<g id="edge2" class="edge"><title>Node3&#45;&gt;Node2</title>
<path fill="none" stroke="midnightblue" d="M117.331,-344.352C126.011,-343.088 134.749,-341.816 142.929,-340.625"/>
<polygon fill="midnightblue" stroke="midnightblue" points="116.595,-340.922 107.203,-345.827 117.603,-347.849 116.595,-340.922"/>
</g>
<!-- Node4 -->
<g id="node4" class="node"><title>Node4</title>
<g id="a_node4"><a xlink:href="class_ogre_1_1_allocated_object.html" target="_top" xlink:title="Superclass for all objects that wish to use custom memory allocators when their new / delete operator...">
<polygon fill="none" stroke="black" points="13.5,-306 13.5,-325 93.5,-325 93.5,-306 13.5,-306"/>
<text text-anchor="middle" x="53.5" y="-313" font-family="Helvetica,sans-Serif" font-size="10.00">ResourceAlloc</text>
</a>
</g>
</g>
<!-- Node4&#45;&gt;Node2 -->
<g id="edge3" class="edge"><title>Node4&#45;&gt;Node2</title>
<path fill="none" stroke="midnightblue" d="M103.713,-322.665C116.542,-324.533 130.253,-326.529 142.69,-328.34"/>
<polygon fill="midnightblue" stroke="midnightblue" points="104.054,-319.178 93.6543,-321.201 103.046,-326.105 104.054,-319.178"/>
</g>
<!-- Node6 -->
<g id="node6" class="node"><title>Node6</title>
<g id="a_node6"><a xlink:href="class_ogre_1_1_d3_d9_gpu_fragment_program.html" target="_top" xlink:title="Direct3D implementation of low&#45;level fragment programs. ">
<polygon fill="none" stroke="black" points="577,-430 577,-449 742,-449 742,-430 577,-430"/>
<text text-anchor="middle" x="659.5" y="-437" font-family="Helvetica,sans-Serif" font-size="10.00">Ogre::D3D9GpuFragmentProgram</text>
</a>
</g>
</g>
<!-- Node5&#45;&gt;Node6 -->
<g id="edge5" class="edge"><title>Node5&#45;&gt;Node6</title>
<path fill="none" stroke="midnightblue" d="M528.284,-413.11C554.951,-418.514 586.281,-424.864 611.526,-429.98"/>
<polygon fill="midnightblue" stroke="midnightblue" points="528.81,-409.645 518.314,-411.089 527.42,-416.506 528.81,-409.645"/>
</g>
<!-- Node7 -->
<g id="node7" class="node"><title>Node7</title>
<g id="a_node7"><a xlink:href="class_ogre_1_1_d3_d9_gpu_vertex_program.html" target="_top" xlink:title="Direct3D implementation of low&#45;level vertex programs. ">
<polygon fill="none" stroke="black" points="583.5,-392 583.5,-411 735.5,-411 735.5,-392 583.5,-392"/>
<text text-anchor="middle" x="659.5" y="-399" font-family="Helvetica,sans-Serif" font-size="10.00">Ogre::D3D9GpuVertexProgram</text>
</a>
</g>
</g>
<!-- Node5&#45;&gt;Node7 -->
<g id="edge6" class="edge"><title>Node5&#45;&gt;Node7</title>
<path fill="none" stroke="midnightblue" d="M542.266,-401.5C555.707,-401.5 569.804,-401.5 583.36,-401.5"/>
<polygon fill="midnightblue" stroke="midnightblue" points="542.135,-398 532.135,-401.5 542.135,-405 542.135,-398"/>
</g>
<!-- Node9 -->
<g id="node9" class="node"><title>Node9</title>
<g id="a_node9"><a xlink:href="class_ogre_1_1_g_l_s_l_e_s_gpu_program.html" target="_top" xlink:title="GLSL ES low level compiled shader object &#45; this class is used to get at the linked program object and...">
<polygon fill="none" stroke="black" points="591,-354 591,-373 728,-373 728,-354 591,-354"/>
<text text-anchor="middle" x="659.5" y="-361" font-family="Helvetica,sans-Serif" font-size="10.00">Ogre::GLSLESGpuProgram</text>
</a>
</g>
</g>
<!-- Node8&#45;&gt;Node9 -->
<g id="edge8" class="edge"><title>Node8&#45;&gt;Node9</title>
<path fill="none" stroke="midnightblue" d="M545.3,-352.029C560.365,-353.556 576.13,-355.153 590.947,-356.655"/>
<polygon fill="midnightblue" stroke="midnightblue" points="545.304,-348.512 535.002,-350.986 544.599,-355.476 545.304,-348.512"/>
</g>
<!-- Node11 -->
<g id="node11" class="node"><title>Node11</title>
<g id="a_node11"><a xlink:href="class_ogre_1_1_g_l_arb_gpu_program.html" target="_top" xlink:title="Specialisation of the GL low&#45;level program for ARB programs. ">
<polygon fill="none" stroke="black" points="596.5,-316 596.5,-335 722.5,-335 722.5,-316 596.5,-316"/>
<text text-anchor="middle" x="659.5" y="-323" font-family="Helvetica,sans-Serif" font-size="10.00">Ogre::GLArbGpuProgram</text>
</a>
</g>
</g>
<!-- Node10&#45;&gt;Node11 -->
<g id="edge10" class="edge"><title>Node10&#45;&gt;Node11</title>
<path fill="none" stroke="midnightblue" d="M535.868,-306.533C555.611,-309.587 577.249,-312.933 596.779,-315.954"/>
<polygon fill="midnightblue" stroke="midnightblue" points="536.154,-303.036 525.737,-304.966 535.084,-309.953 536.154,-303.036"/>
</g>
<!-- Node12 -->
<g id="node12" class="node"><title>Node12</title>
<g id="a_node12"><a xlink:href="class_ogre_1_1_g_l_gpu_nvparse_program.html" target="_top" xlink:title="Ogre::GLGpuNvparseProgram">
<polygon fill="none" stroke="black" points="585.5,-278 585.5,-297 733.5,-297 733.5,-278 585.5,-278"/>
<text text-anchor="middle" x="659.5" y="-285" font-family="Helvetica,sans-Serif" font-size="10.00">Ogre::GLGpuNvparseProgram</text>
</a>
</g>
</g>
<!-- Node10&#45;&gt;Node12 -->
<g id="edge11" class="edge"><title>Node10&#45;&gt;Node12</title>
<path fill="none" stroke="midnightblue" d="M535.978,-293.381C551.864,-292.619 568.97,-291.797 585.215,-291.018"/>
<polygon fill="midnightblue" stroke="midnightblue" points="535.557,-289.897 525.737,-293.873 535.893,-296.889 535.557,-289.897"/>
</g>
<!-- Node13 -->
<g id="node13" class="node"><title>Node13</title>
<g id="a_node13"><a xlink:href="class_ogre_1_1_g_l_s_l_1_1_g_l_s_l_gpu_program.html" target="_top" xlink:title="GLSL low level compiled shader object &#45; this class is used to get at the linked program object and pr...">
<polygon fill="none" stroke="black" points="582.5,-240 582.5,-259 736.5,-259 736.5,-240 582.5,-240"/>
<text text-anchor="middle" x="659.5" y="-247" font-family="Helvetica,sans-Serif" font-size="10.00">Ogre::GLSL::GLSLGpuProgram</text>
</a>
</g>
</g>
<!-- Node10&#45;&gt;Node13 -->
<g id="edge12" class="edge"><title>Node10&#45;&gt;Node13</title>
<path fill="none" stroke="midnightblue" d="M516.057,-284.287C534.864,-279.271 556.958,-273.482 577,-268.5 589.831,-265.311 603.838,-261.988 616.564,-259.029"/>
<polygon fill="midnightblue" stroke="midnightblue" points="515.022,-280.941 506.267,-286.908 516.832,-287.703 515.022,-280.941"/>
</g>
<!-- Node15 -->
<g id="node15" class="node"><title>Node15</title>
<g id="a_node15"><a xlink:href="class_ogre_1_1_cg_program.html" target="_top" xlink:title="Specialisation of HighLevelGpuProgram to provide support for nVidia&#39;s CG language. ">
<polygon fill="none" stroke="black" points="613,-202 613,-221 706,-221 706,-202 613,-202"/>
<text text-anchor="middle" x="659.5" y="-209" font-family="Helvetica,sans-Serif" font-size="10.00">Ogre::CgProgram</text>
</a>
</g>
</g>
<!-- Node14&#45;&gt;Node15 -->
<g id="edge14" class="edge"><title>Node14&#45;&gt;Node15</title>
<path fill="none" stroke="midnightblue" d="M494.376,-150.41C515.306,-163.181 547.203,-181.243 577,-192.5 588.281,-196.762 600.814,-200.257 612.601,-203.035"/>
<polygon fill="midnightblue" stroke="midnightblue" points="496.191,-147.417 485.847,-145.127 492.505,-153.368 496.191,-147.417"/>
</g>
<!-- Node16 -->
<g id="node16" class="node"><title>Node16</title>
<g id="a_node16"><a xlink:href="class_ogre_1_1_d3_d11_h_l_s_l_program.html" target="_top" xlink:title="Specialization of HighLevelGpuProgram to provide support for D3D11 High&#45;Level Shader Language (HLSL)...">
<polygon fill="none" stroke="black" points="591.5,-164 591.5,-183 727.5,-183 727.5,-164 591.5,-164"/>
<text text-anchor="middle" x="659.5" y="-171" font-family="Helvetica,sans-Serif" font-size="10.00">Ogre::D3D11HLSLProgram</text>
</a>
</g>
</g>
<!-- Node14&#45;&gt;Node16 -->
<g id="edge15" class="edge"><title>Node14&#45;&gt;Node16</title>
<path fill="none" stroke="midnightblue" d="M528.284,-147.11C554.951,-152.514 586.281,-158.864 611.526,-163.98"/>
<polygon fill="midnightblue" stroke="midnightblue" points="528.81,-143.645 518.314,-145.089 527.42,-150.506 528.81,-143.645"/>
</g>
<!-- Node17 -->
<g id="node17" class="node"><title>Node17</title>
<g id="a_node17"><a xlink:href="class_ogre_1_1_d3_d9_h_l_s_l_program.html" target="_top" xlink:title="Specialisation of HighLevelGpuProgram to provide support for D3D9 High&#45;Level Shader Language (HLSL)...">
<polygon fill="none" stroke="black" points="594,-126 594,-145 725,-145 725,-126 594,-126"/>
<text text-anchor="middle" x="659.5" y="-133" font-family="Helvetica,sans-Serif" font-size="10.00">Ogre::D3D9HLSLProgram</text>
</a>
</g>
</g>
<!-- Node14&#45;&gt;Node17 -->
<g id="edge16" class="edge"><title>Node14&#45;&gt;Node17</title>
<path fill="none" stroke="midnightblue" d="M551.314,-135.5C565.49,-135.5 580.085,-135.5 593.765,-135.5"/>
<polygon fill="midnightblue" stroke="midnightblue" points="551.085,-132 541.085,-135.5 551.085,-139 551.085,-132"/>
</g>
<!-- Node18 -->
<g id="node18" class="node"><title>Node18</title>
<g id="a_node18"><a xlink:href="class_ogre_1_1_g_l_s_l_1_1_g_l_s_l_program.html" target="_top" xlink:title="Specialisation of HighLevelGpuProgram to provide support for OpenGL Shader Language (GLSL)...">
<polygon fill="none" stroke="black" points="591.5,-88 591.5,-107 727.5,-107 727.5,-88 591.5,-88"/>
<text text-anchor="middle" x="659.5" y="-95" font-family="Helvetica,sans-Serif" font-size="10.00">Ogre::GLSL::GLSLProgram</text>
</a>
</g>
</g>
<!-- Node14&#45;&gt;Node18 -->
<g id="edge17" class="edge"><title>Node14&#45;&gt;Node18</title>
<path fill="none" stroke="midnightblue" d="M528.284,-123.89C554.951,-118.486 586.281,-112.136 611.526,-107.02"/>
<polygon fill="midnightblue" stroke="midnightblue" points="527.42,-120.494 518.314,-125.911 528.81,-127.355 527.42,-120.494"/>
</g>
<!-- Node19 -->
<g id="node19" class="node"><title>Node19</title>
<g id="a_node19"><a xlink:href="class_ogre_1_1_g_l_s_l_shader.html" target="_top" xlink:title="Specialisation of HighLevelGpuProgram to encapsulate shader objects obtained from compiled shaders wr...">
<polygon fill="none" stroke="black" points="610,-50 610,-69 709,-69 709,-50 610,-50"/>
<text text-anchor="middle" x="659.5" y="-57" font-family="Helvetica,sans-Serif" font-size="10.00">Ogre::GLSLShader</text>
</a>
</g>
</g>
<!-- Node14&#45;&gt;Node19 -->
<g id="edge18" class="edge"><title>Node14&#45;&gt;Node19</title>
<path fill="none" stroke="midnightblue" d="M494.376,-120.59C515.306,-107.819 547.203,-89.7567 577,-78.5 587.329,-74.5978 598.709,-71.3379 609.604,-68.683"/>
<polygon fill="midnightblue" stroke="midnightblue" points="492.505,-117.632 485.847,-125.873 496.191,-123.583 492.505,-117.632"/>
</g>
<!-- Node20 -->
<g id="node20" class="node"><title>Node20</title>
<g id="a_node20"><a xlink:href="class_ogre_1_1_unified_high_level_gpu_program.html" target="_top" xlink:title="Specialisation of HighLevelGpuProgram which just delegates its implementation to one other high level...">
<polygon fill="none" stroke="black" points="591.5,-0.5 591.5,-30.5 727.5,-30.5 727.5,-0.5 591.5,-0.5"/>
<text text-anchor="start" x="599.5" y="-18.5" font-family="Helvetica,sans-Serif" font-size="10.00">Ogre::UnifiedHighLevelGpu</text>
<text text-anchor="middle" x="659.5" y="-7.5" font-family="Helvetica,sans-Serif" font-size="10.00">Program</text>
</a>
</g>
</g>
<!-- Node14&#45;&gt;Node20 -->
<g id="edge19" class="edge"><title>Node14&#45;&gt;Node20</title>
<path fill="none" stroke="midnightblue" d="M485.745,-118.334C504.802,-97.1649 539.959,-61.4228 577,-40.5 583.701,-36.7149 591.042,-33.436 598.487,-30.6139"/>
<polygon fill="midnightblue" stroke="midnightblue" points="483.037,-116.114 479.04,-125.926 488.284,-120.748 483.037,-116.114"/>
</g>
</g>
</svg>
