<?xml version="1.0" encoding="UTF-8" standalone="no"?>
<!DOCTYPE svg PUBLIC "-//W3C//DTD SVG 1.1//EN"
 "http://www.w3.org/Graphics/SVG/1.1/DTD/svg11.dtd">
<!-- Generated by graphviz version 2.38.0 (20140413.2041)
 -->
<!-- Title: Ogre::StringInterface Pages: 1 -->
<svg width="870pt" height="970pt"
 viewBox="0.00 0.00 870.00 969.50" xmlns="http://www.w3.org/2000/svg" xmlns:xlink="http://www.w3.org/1999/xlink">
<g id="graph0" class="graph" transform="scale(1 1) rotate(0) translate(4 965.5)">
<title>Ogre::StringInterface</title>
<!-- Node1 -->
<g id="node1" class="node"><title>Node1</title>
<polygon fill="#bfbfbf" stroke="black" points="0,-494.5 0,-513.5 107,-513.5 107,-494.5 0,-494.5"/>
<text text-anchor="middle" x="53.5" y="-501.5" font-family="Helvetica,sans-Serif" font-size="10.00">Ogre::StringInterface</text>
</g>
<!-- Node2 -->
<g id="node2" class="node"><title>Node2</title>
<g id="a_node2"><a xlink:href="class_ogre_1_1_external_texture_source.html" target="_top" xlink:title="IMPORTANT: Plugins must override default dictionary name! Base class that texture plugins derive from...">
<polygon fill="none" stroke="black" points="146.5,-854.5 146.5,-873.5 289.5,-873.5 289.5,-854.5 146.5,-854.5"/>
<text text-anchor="middle" x="218" y="-861.5" font-family="Helvetica,sans-Serif" font-size="10.00">Ogre::ExternalTextureSource</text>
</a>
</g>
</g>
<!-- Node1&#45;&gt;Node2 -->
<g id="edge1" class="edge"><title>Node1&#45;&gt;Node2</title>
<path fill="none" stroke="midnightblue" d="M56.9904,-523.787C65.6416,-589.44 96.4288,-798.55 143,-845 146.85,-848.84 151.366,-851.938 156.234,-854.432"/>
<polygon fill="midnightblue" stroke="midnightblue" points="60.4242,-523.048 55.6728,-513.579 53.4818,-523.944 60.4242,-523.048"/>
</g>
<!-- Node3 -->
<g id="node3" class="node"><title>Node3</title>
<g id="a_node3"><a xlink:href="class_ogre_1_1_overlay_element.html" target="_top" xlink:title="Abstract definition of a 2D element to be displayed in an Overlay. ">
<polygon fill="none" stroke="black" points="161.5,-816.5 161.5,-835.5 274.5,-835.5 274.5,-816.5 161.5,-816.5"/>
<text text-anchor="middle" x="218" y="-823.5" font-family="Helvetica,sans-Serif" font-size="10.00">Ogre::OverlayElement</text>
</a>
</g>
</g>
<!-- Node1&#45;&gt;Node3 -->
<g id="edge2" class="edge"><title>Node1&#45;&gt;Node3</title>
<path fill="none" stroke="midnightblue" d="M62.2188,-523.46C76.7244,-559.515 109.61,-638.87 143,-703 165.672,-746.545 197.272,-795.91 210.633,-816.351"/>
<polygon fill="midnightblue" stroke="midnightblue" points="65.2892,-521.711 58.327,-513.725 58.7894,-524.31 65.2892,-521.711"/>
</g>
<!-- Node8 -->
<g id="node8" class="node"><title>Node8</title>
<g id="a_node8"><a xlink:href="class_ogre_1_1_particle_affector.html" target="_top" xlink:title="Abstract class defining the interface to be implemented by particle affectors. ">
<polygon fill="none" stroke="black" points="162.5,-674.5 162.5,-693.5 273.5,-693.5 273.5,-674.5 162.5,-674.5"/>
<text text-anchor="middle" x="218" y="-681.5" font-family="Helvetica,sans-Serif" font-size="10.00">Ogre::ParticleAffector</text>
</a>
</g>
</g>
<!-- Node1&#45;&gt;Node8 -->
<g id="edge7" class="edge"><title>Node1&#45;&gt;Node8</title>
<path fill="none" stroke="midnightblue" d="M70.0405,-521.214C103.598,-558.386 181.932,-645.155 208.22,-674.275"/>
<polygon fill="midnightblue" stroke="midnightblue" points="72.5357,-518.755 63.2367,-513.678 67.3398,-523.446 72.5357,-518.755"/>
</g>
<!-- Node18 -->
<g id="node18" class="node"><title>Node18</title>
<g id="a_node18"><a xlink:href="class_ogre_1_1_particle_emitter.html" target="_top" xlink:title="Abstract class defining the interface to be implemented by particle emitters. ">
<polygon fill="none" stroke="black" points="164,-494.5 164,-513.5 272,-513.5 272,-494.5 164,-494.5"/>
<text text-anchor="middle" x="218" y="-501.5" font-family="Helvetica,sans-Serif" font-size="10.00">Ogre::ParticleEmitter</text>
</a>
</g>
</g>
<!-- Node1&#45;&gt;Node18 -->
<g id="edge17" class="edge"><title>Node1&#45;&gt;Node18</title>
<path fill="none" stroke="midnightblue" d="M117.677,-504C132.975,-504 149.172,-504 163.95,-504"/>
<polygon fill="midnightblue" stroke="midnightblue" points="117.259,-500.5 107.259,-504 117.259,-507.5 117.259,-500.5"/>
</g>
<!-- Node26 -->
<g id="node26" class="node"><title>Node26</title>
<g id="a_node26"><a xlink:href="class_ogre_1_1_particle_system.html" target="_top" xlink:title="Class defining particle system based special effects. ">
<polygon fill="none" stroke="black" points="163,-456.5 163,-475.5 273,-475.5 273,-456.5 163,-456.5"/>
<text text-anchor="middle" x="218" y="-463.5" font-family="Helvetica,sans-Serif" font-size="10.00">Ogre::ParticleSystem</text>
</a>
</g>
</g>
<!-- Node1&#45;&gt;Node26 -->
<g id="edge25" class="edge"><title>Node1&#45;&gt;Node26</title>
<path fill="none" stroke="midnightblue" d="M105.371,-492.104C128.212,-486.763 154.795,-480.546 176.289,-475.52"/>
<polygon fill="midnightblue" stroke="midnightblue" points="104.446,-488.726 95.5056,-494.411 106.04,-495.542 104.446,-488.726"/>
</g>
<!-- Node27 -->
<g id="node27" class="node"><title>Node27</title>
<g id="a_node27"><a xlink:href="class_ogre_1_1_particle_system_renderer.html" target="_top" xlink:title="Abstract class defining the interface required to be implemented by classes which provide rendering c...">
<polygon fill="none" stroke="black" points="143,-418.5 143,-437.5 293,-437.5 293,-418.5 143,-418.5"/>
<text text-anchor="middle" x="218" y="-425.5" font-family="Helvetica,sans-Serif" font-size="10.00">Ogre::ParticleSystemRenderer</text>
</a>
</g>
</g>
<!-- Node1&#45;&gt;Node27 -->
<g id="edge26" class="edge"><title>Node1&#45;&gt;Node27</title>
<path fill="none" stroke="midnightblue" d="M74.8713,-488.169C92.151,-475.425 118.041,-457.9 143,-447 151.63,-443.231 161.165,-440.091 170.44,-437.521"/>
<polygon fill="midnightblue" stroke="midnightblue" points="72.5589,-485.528 66.6706,-494.336 76.7663,-491.123 72.5589,-485.528"/>
</g>
<!-- Node29 -->
<g id="node29" class="node"><title>Node29</title>
<g id="a_node29"><a xlink:href="class_ogre_1_1_resource.html" target="_top" xlink:title="Abstract class representing a loadable resource (e.g. ">
<polygon fill="none" stroke="black" points="175,-266.5 175,-285.5 261,-285.5 261,-266.5 175,-266.5"/>
<text text-anchor="middle" x="218" y="-273.5" font-family="Helvetica,sans-Serif" font-size="10.00">Ogre::Resource</text>
</a>
</g>
</g>
<!-- Node1&#45;&gt;Node29 -->
<g id="edge28" class="edge"><title>Node1&#45;&gt;Node29</title>
<path fill="none" stroke="midnightblue" d="M67.2158,-486.159C99.7925,-440.451 185.422,-320.306 210.196,-285.547"/>
<polygon fill="midnightblue" stroke="midnightblue" points="64.2293,-484.319 61.2755,-494.493 69.9297,-488.381 64.2293,-484.319"/>
</g>
<!-- Node4 -->
<g id="node4" class="node"><title>Node4</title>
<g id="a_node4"><a xlink:href="class_ogre_1_1_overlay_container.html" target="_top" xlink:title="A 2D element which contains other OverlayElement instances. ">
<polygon fill="none" stroke="black" points="346.5,-936.5 346.5,-955.5 465.5,-955.5 465.5,-936.5 346.5,-936.5"/>
<text text-anchor="middle" x="406" y="-943.5" font-family="Helvetica,sans-Serif" font-size="10.00">Ogre::OverlayContainer</text>
</a>
</g>
</g>
<!-- Node3&#45;&gt;Node4 -->
<g id="edge3" class="edge"><title>Node3&#45;&gt;Node4</title>
<path fill="none" stroke="midnightblue" d="M283.748,-838.615C287.038,-840.466 290.154,-842.582 293,-845 323.334,-870.769 298.585,-901.327 329,-927 334.093,-931.299 340.02,-934.648 346.276,-937.253"/>
<polygon fill="midnightblue" stroke="midnightblue" points="285.225,-835.442 274.691,-834.308 282.219,-841.764 285.225,-835.442"/>
</g>
<!-- Node7 -->
<g id="node7" class="node"><title>Node7</title>
<g id="a_node7"><a xlink:href="class_ogre_1_1_text_area_overlay_element.html" target="_top" xlink:title="This class implements an overlay element which contains simple unformatted text. ">
<polygon fill="none" stroke="black" points="329.5,-898.5 329.5,-917.5 482.5,-917.5 482.5,-898.5 329.5,-898.5"/>
<text text-anchor="middle" x="406" y="-905.5" font-family="Helvetica,sans-Serif" font-size="10.00">Ogre::TextAreaOverlayElement</text>
</a>
</g>
</g>
<!-- Node3&#45;&gt;Node7 -->
<g id="edge6" class="edge"><title>Node3&#45;&gt;Node7</title>
<path fill="none" stroke="midnightblue" d="M282.522,-839.351C286.174,-841.018 289.698,-842.892 293,-845 314.297,-858.596 307.66,-875.471 329,-889 335.088,-892.86 341.913,-895.935 348.908,-898.387"/>
<polygon fill="midnightblue" stroke="midnightblue" points="283.819,-836.1 273.235,-835.621 281.21,-842.596 283.819,-836.1"/>
</g>
<!-- Node5 -->
<g id="node5" class="node"><title>Node5</title>
<g id="a_node5"><a xlink:href="class_ogre_1_1_panel_overlay_element.html" target="_top" xlink:title="OverlayElement representing a flat, single&#45;material (or transparent) panel which can contain other el...">
<polygon fill="none" stroke="black" points="521,-936.5 521,-955.5 659,-955.5 659,-936.5 521,-936.5"/>
<text text-anchor="middle" x="590" y="-943.5" font-family="Helvetica,sans-Serif" font-size="10.00">Ogre::PanelOverlayElement</text>
</a>
</g>
</g>
<!-- Node4&#45;&gt;Node5 -->
<g id="edge4" class="edge"><title>Node4&#45;&gt;Node5</title>
<path fill="none" stroke="midnightblue" d="M475.641,-946C490.385,-946 505.963,-946 520.694,-946"/>
<polygon fill="midnightblue" stroke="midnightblue" points="475.588,-942.5 465.588,-946 475.588,-949.5 475.588,-942.5"/>
</g>
<!-- Node6 -->
<g id="node6" class="node"><title>Node6</title>
<g id="a_node6"><a xlink:href="class_ogre_1_1_border_panel_overlay_element.html" target="_top" xlink:title="A specialisation of the PanelOverlayElement to provide a panel with a border. ">
<polygon fill="none" stroke="black" points="714,-931 714,-961 845,-961 845,-931 714,-931"/>
<text text-anchor="start" x="722" y="-949" font-family="Helvetica,sans-Serif" font-size="10.00">Ogre::BorderPanelOverlay</text>
<text text-anchor="middle" x="779.5" y="-938" font-family="Helvetica,sans-Serif" font-size="10.00">Element</text>
</a>
</g>
</g>
<!-- Node5&#45;&gt;Node6 -->
<g id="edge5" class="edge"><title>Node5&#45;&gt;Node6</title>
<path fill="none" stroke="midnightblue" d="M669.356,-946C684.143,-946 699.455,-946 713.766,-946"/>
<polygon fill="midnightblue" stroke="midnightblue" points="669.222,-942.5 659.222,-946 669.222,-949.5 669.222,-942.5"/>
</g>
<!-- Node9 -->
<g id="node9" class="node"><title>Node9</title>
<g id="a_node9"><a xlink:href="class_ogre_1_1_colour_fader_affector.html" target="_top" xlink:title="This plugin subclass of ParticleAffector allows you to alter the colour of particles. ">
<polygon fill="none" stroke="black" points="340.5,-860.5 340.5,-879.5 471.5,-879.5 471.5,-860.5 340.5,-860.5"/>
<text text-anchor="middle" x="406" y="-867.5" font-family="Helvetica,sans-Serif" font-size="10.00">Ogre::ColourFaderAffector</text>
</a>
</g>
</g>
<!-- Node8&#45;&gt;Node9 -->
<g id="edge8" class="edge"><title>Node8&#45;&gt;Node9</title>
<path fill="none" stroke="midnightblue" d="M230.119,-702.481C255.135,-743.816 314.775,-840.916 329,-851 334.437,-854.854 340.577,-857.929 346.951,-860.381"/>
<polygon fill="midnightblue" stroke="midnightblue" points="232.976,-700.44 224.811,-693.688 226.983,-704.058 232.976,-700.44"/>
</g>
<!-- Node10 -->
<g id="node10" class="node"><title>Node10</title>
<g id="a_node10"><a xlink:href="class_ogre_1_1_colour_fader_affector2.html" target="_top" xlink:title="This plugin subclass of ParticleAffector allows you to alter the colour of particles. ">
<polygon fill="none" stroke="black" points="337.5,-822.5 337.5,-841.5 474.5,-841.5 474.5,-822.5 337.5,-822.5"/>
<text text-anchor="middle" x="406" y="-829.5" font-family="Helvetica,sans-Serif" font-size="10.00">Ogre::ColourFaderAffector2</text>
</a>
</g>
</g>
<!-- Node8&#45;&gt;Node10 -->
<g id="edge9" class="edge"><title>Node8&#45;&gt;Node10</title>
<path fill="none" stroke="midnightblue" d="M229.458,-702.389C246.529,-730.675 283.124,-784.566 329,-813 335.242,-816.869 342.233,-819.951 349.378,-822.406"/>
<polygon fill="midnightblue" stroke="midnightblue" points="232.338,-700.38 224.251,-693.535 226.304,-703.929 232.338,-700.38"/>
</g>
<!-- Node11 -->
<g id="node11" class="node"><title>Node11</title>
<g id="a_node11"><a xlink:href="class_ogre_1_1_colour_image_affector.html" target="_top" xlink:title="Ogre::ColourImageAffector">
<polygon fill="none" stroke="black" points="339,-784.5 339,-803.5 473,-803.5 473,-784.5 339,-784.5"/>
<text text-anchor="middle" x="406" y="-791.5" font-family="Helvetica,sans-Serif" font-size="10.00">Ogre::ColourImageAffector</text>
</a>
</g>
</g>
<!-- Node8&#45;&gt;Node11 -->
<g id="edge10" class="edge"><title>Node8&#45;&gt;Node11</title>
<path fill="none" stroke="midnightblue" d="M234.725,-701.015C254.689,-721.593 291.117,-755.849 329,-775 336.647,-778.866 345.133,-781.979 353.581,-784.477"/>
<polygon fill="midnightblue" stroke="midnightblue" points="237.109,-698.442 227.68,-693.61 232.037,-703.268 237.109,-698.442"/>
</g>
<!-- Node12 -->
<g id="node12" class="node"><title>Node12</title>
<g id="a_node12"><a xlink:href="class_ogre_1_1_colour_interpolator_affector.html" target="_top" xlink:title="Ogre::ColourInterpolator\lAffector">
<polygon fill="none" stroke="black" points="345.5,-735 345.5,-765 466.5,-765 466.5,-735 345.5,-735"/>
<text text-anchor="start" x="353.5" y="-753" font-family="Helvetica,sans-Serif" font-size="10.00">Ogre::ColourInterpolator</text>
<text text-anchor="middle" x="406" y="-742" font-family="Helvetica,sans-Serif" font-size="10.00">Affector</text>
</a>
</g>
</g>
<!-- Node8&#45;&gt;Node12 -->
<g id="edge11" class="edge"><title>Node8&#45;&gt;Node12</title>
<path fill="none" stroke="midnightblue" d="M253.221,-697.147C274.868,-705.365 303.483,-716.051 329,-725 338.437,-728.31 348.578,-731.735 358.28,-734.949"/>
<polygon fill="midnightblue" stroke="midnightblue" points="254.392,-693.848 243.801,-693.559 251.901,-700.389 254.392,-693.848"/>
</g>
<!-- Node13 -->
<g id="node13" class="node"><title>Node13</title>
<g id="a_node13"><a xlink:href="class_ogre_1_1_deflector_plane_affector.html" target="_top" xlink:title="This class defines a ParticleAffector which deflects particles. ">
<polygon fill="none" stroke="black" points="334.5,-696.5 334.5,-715.5 477.5,-715.5 477.5,-696.5 334.5,-696.5"/>
<text text-anchor="middle" x="406" y="-703.5" font-family="Helvetica,sans-Serif" font-size="10.00">Ogre::DeflectorPlaneAffector</text>
</a>
</g>
</g>
<!-- Node8&#45;&gt;Node13 -->
<g id="edge12" class="edge"><title>Node8&#45;&gt;Node13</title>
<path fill="none" stroke="midnightblue" d="M283.542,-691.634C299.892,-693.568 317.542,-695.655 334.184,-697.624"/>
<polygon fill="midnightblue" stroke="midnightblue" points="283.891,-688.151 273.549,-690.452 283.069,-695.103 283.891,-688.151"/>
</g>
<!-- Node14 -->
<g id="node14" class="node"><title>Node14</title>
<g id="a_node14"><a xlink:href="class_ogre_1_1_direction_randomiser_affector.html" target="_top" xlink:title="This class defines a ParticleAffector which applies randomness to the movement of the particles...">
<polygon fill="none" stroke="black" points="338.5,-647 338.5,-677 473.5,-677 473.5,-647 338.5,-647"/>
<text text-anchor="start" x="346.5" y="-665" font-family="Helvetica,sans-Serif" font-size="10.00">Ogre::DirectionRandomiser</text>
<text text-anchor="middle" x="406" y="-654" font-family="Helvetica,sans-Serif" font-size="10.00">Affector</text>
</a>
</g>
</g>
<!-- Node8&#45;&gt;Node14 -->
<g id="edge13" class="edge"><title>Node8&#45;&gt;Node14</title>
<path fill="none" stroke="midnightblue" d="M283.738,-676.343C301.373,-674.257 320.506,-671.994 338.25,-669.895"/>
<polygon fill="midnightblue" stroke="midnightblue" points="283.069,-672.897 273.549,-677.548 283.891,-679.849 283.069,-672.897"/>
</g>
<!-- Node15 -->
<g id="node15" class="node"><title>Node15</title>
<g id="a_node15"><a xlink:href="class_ogre_1_1_linear_force_affector.html" target="_top" xlink:title="This class defines a ParticleAffector which applies a linear force to particles in a system...">
<polygon fill="none" stroke="black" points="341.5,-608.5 341.5,-627.5 470.5,-627.5 470.5,-608.5 341.5,-608.5"/>
<text text-anchor="middle" x="406" y="-615.5" font-family="Helvetica,sans-Serif" font-size="10.00">Ogre::LinearForceAffector</text>
</a>
</g>
</g>
<!-- Node8&#45;&gt;Node15 -->
<g id="edge14" class="edge"><title>Node8&#45;&gt;Node15</title>
<path fill="none" stroke="midnightblue" d="M248.752,-670.236C270.643,-660.435 301.288,-647.39 329,-638 340.371,-634.147 352.905,-630.579 364.459,-627.557"/>
<polygon fill="midnightblue" stroke="midnightblue" points="247.022,-667.177 239.352,-674.486 249.906,-673.555 247.022,-667.177"/>
</g>
<!-- Node16 -->
<g id="node16" class="node"><title>Node16</title>
<g id="a_node16"><a xlink:href="class_ogre_1_1_rotation_affector.html" target="_top" xlink:title="This plugin subclass of ParticleAffector allows you to alter the rotation of particles. ">
<polygon fill="none" stroke="black" points="348.5,-570.5 348.5,-589.5 463.5,-589.5 463.5,-570.5 348.5,-570.5"/>
<text text-anchor="middle" x="406" y="-577.5" font-family="Helvetica,sans-Serif" font-size="10.00">Ogre::RotationAffector</text>
</a>
</g>
</g>
<!-- Node8&#45;&gt;Node16 -->
<g id="edge15" class="edge"><title>Node8&#45;&gt;Node16</title>
<path fill="none" stroke="midnightblue" d="M235.9,-667.256C256.28,-647.996 292.382,-616.753 329,-599 336.955,-595.143 345.77,-592.02 354.495,-589.507"/>
<polygon fill="midnightblue" stroke="midnightblue" points="233.429,-664.776 228.651,-674.233 238.283,-669.82 233.429,-664.776"/>
</g>
<!-- Node17 -->
<g id="node17" class="node"><title>Node17</title>
<g id="a_node17"><a xlink:href="class_ogre_1_1_scale_affector.html" target="_top" xlink:title="This plugin subclass of ParticleAffector allows you to alter the scale of particles. ">
<polygon fill="none" stroke="black" points="354.5,-532.5 354.5,-551.5 457.5,-551.5 457.5,-532.5 354.5,-532.5"/>
<text text-anchor="middle" x="406" y="-539.5" font-family="Helvetica,sans-Serif" font-size="10.00">Ogre::ScaleAffector</text>
</a>
</g>
</g>
<!-- Node8&#45;&gt;Node17 -->
<g id="edge16" class="edge"><title>Node8&#45;&gt;Node17</title>
<path fill="none" stroke="midnightblue" d="M230.189,-665.679C247.762,-638.516 284.462,-587.883 329,-561 336.685,-556.361 345.459,-552.852 354.249,-550.197"/>
<polygon fill="midnightblue" stroke="midnightblue" points="227.169,-663.907 224.79,-674.231 233.088,-667.644 227.169,-663.907"/>
</g>
<!-- Node19 -->
<g id="node19" class="node"><title>Node19</title>
<g id="a_node19"><a xlink:href="class_ogre_1_1_area_emitter.html" target="_top" xlink:title="Particle emitter which emits particles randomly from points inside an area (box, sphere, ellipsoid whatever subclasses choose to be). ">
<polygon fill="none" stroke="black" points="358.5,-494.5 358.5,-513.5 453.5,-513.5 453.5,-494.5 358.5,-494.5"/>
<text text-anchor="middle" x="406" y="-501.5" font-family="Helvetica,sans-Serif" font-size="10.00">Ogre::AreaEmitter</text>
</a>
</g>
</g>
<!-- Node18&#45;&gt;Node19 -->
<g id="edge18" class="edge"><title>Node18&#45;&gt;Node19</title>
<path fill="none" stroke="midnightblue" d="M282.39,-504C307.288,-504 335.347,-504 358.333,-504"/>
<polygon fill="midnightblue" stroke="midnightblue" points="282.3,-500.5 272.3,-504 282.3,-507.5 282.3,-500.5"/>
</g>
<!-- Node25 -->
<g id="node25" class="node"><title>Node25</title>
<g id="a_node25"><a xlink:href="class_ogre_1_1_point_emitter.html" target="_top" xlink:title="Particle emitter which emits particles from a single point. ">
<polygon fill="none" stroke="black" points="357,-456.5 357,-475.5 455,-475.5 455,-456.5 357,-456.5"/>
<text text-anchor="middle" x="406" y="-463.5" font-family="Helvetica,sans-Serif" font-size="10.00">Ogre::PointEmitter</text>
</a>
</g>
</g>
<!-- Node18&#45;&gt;Node25 -->
<g id="edge24" class="edge"><title>Node18&#45;&gt;Node25</title>
<path fill="none" stroke="midnightblue" d="M275.825,-492.39C302.279,-486.986 333.358,-480.636 358.402,-475.52"/>
<polygon fill="midnightblue" stroke="midnightblue" points="275.033,-488.98 265.936,-494.411 276.434,-495.838 275.033,-488.98"/>
</g>
<!-- Node20 -->
<g id="node20" class="node"><title>Node20</title>
<g id="a_node20"><a xlink:href="class_ogre_1_1_box_emitter.html" target="_top" xlink:title="Particle emitter which emits particles randomly from points inside a box. ">
<polygon fill="none" stroke="black" points="544,-551.5 544,-570.5 636,-570.5 636,-551.5 544,-551.5"/>
<text text-anchor="middle" x="590" y="-558.5" font-family="Helvetica,sans-Serif" font-size="10.00">Ogre::BoxEmitter</text>
</a>
</g>
</g>
<!-- Node19&#45;&gt;Node20 -->
<g id="edge19" class="edge"><title>Node19&#45;&gt;Node20</title>
<path fill="none" stroke="midnightblue" d="M462.938,-516.343C469.773,-518.331 476.599,-520.552 483,-523 499.898,-529.463 502.168,-535.368 519,-542 528.138,-545.601 538.206,-548.771 547.789,-551.439"/>
<polygon fill="midnightblue" stroke="midnightblue" points="463.535,-512.878 452.965,-513.599 461.677,-519.627 463.535,-512.878"/>
</g>
<!-- Node21 -->
<g id="node21" class="node"><title>Node21</title>
<g id="a_node21"><a xlink:href="class_ogre_1_1_cylinder_emitter.html" target="_top" xlink:title="Particle emitter which emits particles randomly from points inside a cylinder. ">
<polygon fill="none" stroke="black" points="534.5,-513.5 534.5,-532.5 645.5,-532.5 645.5,-513.5 534.5,-513.5"/>
<text text-anchor="middle" x="590" y="-520.5" font-family="Helvetica,sans-Serif" font-size="10.00">Ogre::CylinderEmitter</text>
</a>
</g>
</g>
<!-- Node19&#45;&gt;Node21 -->
<g id="edge20" class="edge"><title>Node19&#45;&gt;Node21</title>
<path fill="none" stroke="midnightblue" d="M463.922,-509.942C486.348,-512.284 512.002,-514.962 534.215,-517.281"/>
<polygon fill="midnightblue" stroke="midnightblue" points="464.179,-506.45 453.87,-508.893 463.452,-513.412 464.179,-506.45"/>
</g>
<!-- Node22 -->
<g id="node22" class="node"><title>Node22</title>
<g id="a_node22"><a xlink:href="class_ogre_1_1_ellipsoid_emitter.html" target="_top" xlink:title="Particle emitter which emits particles randomly from points inside an ellipsoid. ">
<polygon fill="none" stroke="black" points="534,-475.5 534,-494.5 646,-494.5 646,-475.5 534,-475.5"/>
<text text-anchor="middle" x="590" y="-482.5" font-family="Helvetica,sans-Serif" font-size="10.00">Ogre::EllipsoidEmitter</text>
</a>
</g>
</g>
<!-- Node19&#45;&gt;Node22 -->
<g id="edge21" class="edge"><title>Node19&#45;&gt;Node22</title>
<path fill="none" stroke="midnightblue" d="M463.878,-498.062C486.204,-495.732 511.733,-493.066 533.885,-490.754"/>
<polygon fill="midnightblue" stroke="midnightblue" points="463.452,-494.588 453.87,-499.107 464.179,-501.55 463.452,-494.588"/>
</g>
<!-- Node24 -->
<g id="node24" class="node"><title>Node24</title>
<g id="a_node24"><a xlink:href="class_ogre_1_1_ring_emitter.html" target="_top" xlink:title="Particle emitter which emits particles randomly from points inside a ring (e.g. ">
<polygon fill="none" stroke="black" points="542.5,-437.5 542.5,-456.5 637.5,-456.5 637.5,-437.5 542.5,-437.5"/>
<text text-anchor="middle" x="590" y="-444.5" font-family="Helvetica,sans-Serif" font-size="10.00">Ogre::RingEmitter</text>
</a>
</g>
</g>
<!-- Node19&#45;&gt;Node24 -->
<g id="edge23" class="edge"><title>Node19&#45;&gt;Node24</title>
<path fill="none" stroke="midnightblue" d="M462.938,-491.657C469.773,-489.669 476.599,-487.448 483,-485 499.898,-478.537 502.168,-472.632 519,-466 528.138,-462.399 538.206,-459.229 547.789,-456.561"/>
<polygon fill="midnightblue" stroke="midnightblue" points="461.677,-488.373 452.965,-494.401 463.535,-495.122 461.677,-488.373"/>
</g>
<!-- Node23 -->
<g id="node23" class="node"><title>Node23</title>
<g id="a_node23"><a xlink:href="class_ogre_1_1_hollow_ellipsoid_emitter.html" target="_top" xlink:title="Particle emitter which emits particles randomly from points inside a hollow ellipsoid. ">
<polygon fill="none" stroke="black" points="708.5,-475.5 708.5,-494.5 850.5,-494.5 850.5,-475.5 708.5,-475.5"/>
<text text-anchor="middle" x="779.5" y="-482.5" font-family="Helvetica,sans-Serif" font-size="10.00">Ogre::HollowEllipsoidEmitter</text>
</a>
</g>
</g>
<!-- Node22&#45;&gt;Node23 -->
<g id="edge22" class="edge"><title>Node22&#45;&gt;Node23</title>
<path fill="none" stroke="midnightblue" d="M656.483,-485C673.242,-485 691.33,-485 708.315,-485"/>
<polygon fill="midnightblue" stroke="midnightblue" points="656.242,-481.5 646.242,-485 656.242,-488.5 656.242,-481.5"/>
</g>
<!-- Node28 -->
<g id="node28" class="node"><title>Node28</title>
<g id="a_node28"><a xlink:href="class_ogre_1_1_billboard_particle_renderer.html" target="_top" xlink:title="Specialisation of ParticleSystemRenderer to render particles using a BillboardSet. ">
<polygon fill="none" stroke="black" points="329,-418.5 329,-437.5 483,-437.5 483,-418.5 329,-418.5"/>
<text text-anchor="middle" x="406" y="-425.5" font-family="Helvetica,sans-Serif" font-size="10.00">Ogre::BillboardParticleRenderer</text>
</a>
</g>
</g>
<!-- Node27&#45;&gt;Node28 -->
<g id="edge27" class="edge"><title>Node27&#45;&gt;Node28</title>
<path fill="none" stroke="midnightblue" d="M303.324,-428C311.805,-428 320.383,-428 328.772,-428"/>
<polygon fill="midnightblue" stroke="midnightblue" points="303.047,-424.5 293.047,-428 303.047,-431.5 303.047,-424.5"/>
</g>
<!-- Node30 -->
<g id="node30" class="node"><title>Node30</title>
<g id="a_node30"><a xlink:href="class_ogre_1_1_bsp_level.html" target="_top" xlink:title="Holds all the data associated with a Binary Space Parition (BSP) based indoor level. ">
<polygon fill="none" stroke="black" points="364,-380.5 364,-399.5 448,-399.5 448,-380.5 364,-380.5"/>
<text text-anchor="middle" x="406" y="-387.5" font-family="Helvetica,sans-Serif" font-size="10.00">Ogre::BspLevel</text>
</a>
</g>
</g>
<!-- Node29&#45;&gt;Node30 -->
<g id="edge29" class="edge"><title>Node29&#45;&gt;Node30</title>
<path fill="none" stroke="midnightblue" d="M234.264,-293.46C254,-314.934 290.443,-350.992 329,-371 339.744,-376.575 352.203,-380.57 363.887,-383.41"/>
<polygon fill="midnightblue" stroke="midnightblue" points="236.614,-290.84 227.321,-285.751 231.412,-295.524 236.614,-290.84"/>
</g>
<!-- Node31 -->
<g id="node31" class="node"><title>Node31</title>
<g id="a_node31"><a xlink:href="class_ogre_1_1_compositor.html" target="_top" xlink:title="Class representing a Compositor object. ">
<polygon fill="none" stroke="black" points="359,-342.5 359,-361.5 453,-361.5 453,-342.5 359,-342.5"/>
<text text-anchor="middle" x="406" y="-349.5" font-family="Helvetica,sans-Serif" font-size="10.00">Ogre::Compositor</text>
</a>
</g>
</g>
<!-- Node29&#45;&gt;Node31 -->
<g id="edge30" class="edge"><title>Node29&#45;&gt;Node31</title>
<path fill="none" stroke="midnightblue" d="M243.382,-290.743C265.182,-303.405 298.331,-321.402 329,-333 338.668,-336.656 349.294,-339.816 359.457,-342.452"/>
<polygon fill="midnightblue" stroke="midnightblue" points="244.887,-287.567 234.494,-285.51 241.336,-293.599 244.887,-287.567"/>
</g>
<!-- Node32 -->
<g id="node32" class="node"><title>Node32</title>
<g id="a_node32"><a xlink:href="class_ogre_1_1_font.html" target="_top" xlink:title="Class representing a font in the system. ">
<polygon fill="none" stroke="black" points="374.5,-304.5 374.5,-323.5 437.5,-323.5 437.5,-304.5 374.5,-304.5"/>
<text text-anchor="middle" x="406" y="-311.5" font-family="Helvetica,sans-Serif" font-size="10.00">Ogre::Font</text>
</a>
</g>
</g>
<!-- Node29&#45;&gt;Node32 -->
<g id="edge31" class="edge"><title>Node29&#45;&gt;Node32</title>
<path fill="none" stroke="midnightblue" d="M271.211,-286.667C304.423,-293.452 346.291,-302.006 374.261,-307.72"/>
<polygon fill="midnightblue" stroke="midnightblue" points="271.705,-283.195 261.206,-284.623 270.303,-290.054 271.705,-283.195"/>
</g>
<!-- Node33 -->
<g id="node33" class="node"><title>Node33</title>
<g id="a_node33"><a xlink:href="class_ogre_1_1_gpu_program.html" target="_top" xlink:title="Defines a program which runs on the GPU such as a vertex or fragment program. ">
<polygon fill="none" stroke="black" points="357,-266.5 357,-285.5 455,-285.5 455,-266.5 357,-266.5"/>
<text text-anchor="middle" x="406" y="-273.5" font-family="Helvetica,sans-Serif" font-size="10.00">Ogre::GpuProgram</text>
</a>
</g>
</g>
<!-- Node29&#45;&gt;Node33 -->
<g id="edge32" class="edge"><title>Node29&#45;&gt;Node33</title>
<path fill="none" stroke="midnightblue" d="M271.54,-276C298.295,-276 330.6,-276 356.724,-276"/>
<polygon fill="midnightblue" stroke="midnightblue" points="271.206,-272.5 261.206,-276 271.206,-279.5 271.206,-272.5"/>
</g>
<!-- Node40 -->
<g id="node40" class="node"><title>Node40</title>
<g id="a_node40"><a xlink:href="class_ogre_1_1_material.html" target="_top" xlink:title="Class encapsulates rendering properties of an object. ">
<polygon fill="none" stroke="black" points="367,-228.5 367,-247.5 445,-247.5 445,-228.5 367,-228.5"/>
<text text-anchor="middle" x="406" y="-235.5" font-family="Helvetica,sans-Serif" font-size="10.00">Ogre::Material</text>
</a>
</g>
</g>
<!-- Node29&#45;&gt;Node40 -->
<g id="edge39" class="edge"><title>Node29&#45;&gt;Node40</title>
<path fill="none" stroke="midnightblue" d="M271.2,-265.335C301.56,-259.133 339.155,-251.452 366.757,-245.813"/>
<polygon fill="midnightblue" stroke="midnightblue" points="270.303,-261.946 261.206,-267.377 271.705,-268.805 270.303,-261.946"/>
</g>
<!-- Node41 -->
<g id="node41" class="node"><title>Node41</title>
<g id="a_node41"><a xlink:href="class_ogre_1_1_mesh.html" target="_top" xlink:title="Resource holding data about 3D mesh. ">
<polygon fill="none" stroke="black" points="372,-190.5 372,-209.5 440,-209.5 440,-190.5 372,-190.5"/>
<text text-anchor="middle" x="406" y="-197.5" font-family="Helvetica,sans-Serif" font-size="10.00">Ogre::Mesh</text>
</a>
</g>
</g>
<!-- Node29&#45;&gt;Node41 -->
<g id="edge40" class="edge"><title>Node29&#45;&gt;Node41</title>
<path fill="none" stroke="midnightblue" d="M243.382,-261.257C265.182,-248.595 298.331,-230.598 329,-219 342.739,-213.805 358.412,-209.611 371.942,-206.499"/>
<polygon fill="midnightblue" stroke="midnightblue" points="241.336,-258.401 234.494,-266.49 244.887,-264.433 241.336,-258.401"/>
</g>
<!-- Node43 -->
<g id="node43" class="node"><title>Node43</title>
<g id="a_node43"><a xlink:href="class_ogre_1_1_skeleton.html" target="_top" xlink:title="A collection of Bone objects used to animate a skinned mesh. ">
<polygon fill="none" stroke="black" points="365,-152.5 365,-171.5 447,-171.5 447,-152.5 365,-152.5"/>
<text text-anchor="middle" x="406" y="-159.5" font-family="Helvetica,sans-Serif" font-size="10.00">Ogre::Skeleton</text>
</a>
</g>
</g>
<!-- Node29&#45;&gt;Node43 -->
<g id="edge42" class="edge"><title>Node29&#45;&gt;Node43</title>
<path fill="none" stroke="midnightblue" d="M234.264,-258.54C254,-237.066 290.443,-201.008 329,-181 339.985,-175.299 352.764,-171.251 364.673,-168.4"/>
<polygon fill="midnightblue" stroke="midnightblue" points="231.412,-256.476 227.321,-266.249 236.614,-261.16 231.412,-256.476"/>
</g>
<!-- Node45 -->
<g id="node45" class="node"><title>Node45</title>
<g id="a_node45"><a xlink:href="class_ogre_1_1_texture.html" target="_top" xlink:title="Abstract class representing a Texture resource. ">
<polygon fill="none" stroke="black" points="367.5,-76.5 367.5,-95.5 444.5,-95.5 444.5,-76.5 367.5,-76.5"/>
<text text-anchor="middle" x="406" y="-83.5" font-family="Helvetica,sans-Serif" font-size="10.00">Ogre::Texture</text>
</a>
</g>
</g>
<!-- Node29&#45;&gt;Node45 -->
<g id="edge44" class="edge"><title>Node29&#45;&gt;Node45</title>
<path fill="none" stroke="midnightblue" d="M231.783,-257.945C251.144,-231.245 289.815,-180.365 329,-143 348.575,-124.334 374.26,-106.191 390.193,-95.5613"/>
<polygon fill="midnightblue" stroke="midnightblue" points="228.76,-256.154 225.771,-266.319 234.446,-260.237 228.76,-256.154"/>
</g>
<!-- Node34 -->
<g id="node34" class="node"><title>Node34</title>
<g id="a_node34"><a xlink:href="class_ogre_1_1_d3_d9_gpu_program.html" target="_top" xlink:title="Direct3D implementation of a few things common to low&#45;level vertex &amp; fragment programs. ">
<polygon fill="none" stroke="black" points="528,-342.5 528,-361.5 652,-361.5 652,-342.5 528,-342.5"/>
<text text-anchor="middle" x="590" y="-349.5" font-family="Helvetica,sans-Serif" font-size="10.00">Ogre::D3D9GpuProgram</text>
</a>
</g>
</g>
<!-- Node33&#45;&gt;Node34 -->
<g id="edge33" class="edge"><title>Node33&#45;&gt;Node34</title>
<path fill="none" stroke="midnightblue" d="M465.12,-286.831C471.362,-289.066 477.451,-291.759 483,-295 503.088,-306.735 499.031,-321.064 519,-333 525.485,-336.876 532.776,-339.979 540.138,-342.459"/>
<polygon fill="midnightblue" stroke="midnightblue" points="465.833,-283.385 455.242,-283.682 463.706,-290.054 465.833,-283.385"/>
</g>
<!-- Node37 -->
<g id="node37" class="node"><title>Node37</title>
<g id="a_node37"><a xlink:href="class_ogre_1_1_g_l_e_s2_gpu_program.html" target="_top" xlink:title="Generalised low&#45;level GL program, can be applied to multiple types (eg ARB and NV) ...">
<polygon fill="none" stroke="red" points="525,-304.5 525,-323.5 655,-323.5 655,-304.5 525,-304.5"/>
<text text-anchor="middle" x="590" y="-311.5" font-family="Helvetica,sans-Serif" font-size="10.00">Ogre::GLES2GpuProgram</text>
</a>
</g>
</g>
<!-- Node33&#45;&gt;Node37 -->
<g id="edge36" class="edge"><title>Node33&#45;&gt;Node37</title>
<path fill="none" stroke="midnightblue" d="M462.946,-287.681C488.756,-293.07 519.007,-299.386 543.404,-304.48"/>
<polygon fill="midnightblue" stroke="midnightblue" points="463.431,-284.207 452.926,-285.589 462,-291.059 463.431,-284.207"/>
</g>
<!-- Node38 -->
<g id="node38" class="node"><title>Node38</title>
<g id="a_node38"><a xlink:href="class_ogre_1_1_g_l_gpu_program.html" target="_top" xlink:title="Generalised low&#45;level GL program, can be applied to multiple types (eg ARB and NV) ...">
<polygon fill="none" stroke="red" points="534.5,-266.5 534.5,-285.5 645.5,-285.5 645.5,-266.5 534.5,-266.5"/>
<text text-anchor="middle" x="590" y="-273.5" font-family="Helvetica,sans-Serif" font-size="10.00">Ogre::GLGpuProgram</text>
</a>
</g>
</g>
<!-- Node33&#45;&gt;Node38 -->
<g id="edge37" class="edge"><title>Node33&#45;&gt;Node38</title>
<path fill="none" stroke="midnightblue" d="M465.543,-276C487.63,-276 512.653,-276 534.368,-276"/>
<polygon fill="midnightblue" stroke="midnightblue" points="465.295,-272.5 455.295,-276 465.295,-279.5 465.295,-272.5"/>
</g>
<!-- Node39 -->
<g id="node39" class="node"><title>Node39</title>
<g id="a_node39"><a xlink:href="class_ogre_1_1_high_level_gpu_program.html" target="_top" xlink:title="Abstract base class representing a high&#45;level program (a vertex or fragment program). ">
<polygon fill="none" stroke="red" points="519,-228.5 519,-247.5 661,-247.5 661,-228.5 519,-228.5"/>
<text text-anchor="middle" x="590" y="-235.5" font-family="Helvetica,sans-Serif" font-size="10.00">Ogre::HighLevelGpuProgram</text>
</a>
</g>
</g>
<!-- Node33&#45;&gt;Node39 -->
<g id="edge38" class="edge"><title>Node33&#45;&gt;Node39</title>
<path fill="none" stroke="midnightblue" d="M462.946,-264.319C488.756,-258.93 519.007,-252.614 543.404,-247.52"/>
<polygon fill="midnightblue" stroke="midnightblue" points="462,-260.941 452.926,-266.411 463.431,-267.793 462,-260.941"/>
</g>
<!-- Node35 -->
<g id="node35" class="node"><title>Node35</title>
<g id="a_node35"><a xlink:href="class_ogre_1_1_d3_d9_gpu_fragment_program.html" target="_top" xlink:title="Direct3D implementation of low&#45;level fragment programs. ">
<polygon fill="none" stroke="black" points="697,-361.5 697,-380.5 862,-380.5 862,-361.5 697,-361.5"/>
<text text-anchor="middle" x="779.5" y="-368.5" font-family="Helvetica,sans-Serif" font-size="10.00">Ogre::D3D9GpuFragmentProgram</text>
</a>
</g>
</g>
<!-- Node34&#45;&gt;Node35 -->
<g id="edge34" class="edge"><title>Node34&#45;&gt;Node35</title>
<path fill="none" stroke="midnightblue" d="M662.375,-359.233C673.688,-360.379 685.463,-361.572 696.987,-362.74"/>
<polygon fill="midnightblue" stroke="midnightblue" points="662.437,-355.721 652.135,-358.195 661.731,-362.685 662.437,-355.721"/>
</g>
<!-- Node36 -->
<g id="node36" class="node"><title>Node36</title>
<g id="a_node36"><a xlink:href="class_ogre_1_1_d3_d9_gpu_vertex_program.html" target="_top" xlink:title="Direct3D implementation of low&#45;level vertex programs. ">
<polygon fill="none" stroke="black" points="703.5,-323.5 703.5,-342.5 855.5,-342.5 855.5,-323.5 703.5,-323.5"/>
<text text-anchor="middle" x="779.5" y="-330.5" font-family="Helvetica,sans-Serif" font-size="10.00">Ogre::D3D9GpuVertexProgram</text>
</a>
</g>
</g>
<!-- Node34&#45;&gt;Node36 -->
<g id="edge35" class="edge"><title>Node34&#45;&gt;Node36</title>
<path fill="none" stroke="midnightblue" d="M662.266,-344.778C675.707,-343.416 689.804,-341.988 703.36,-340.614"/>
<polygon fill="midnightblue" stroke="midnightblue" points="661.731,-341.315 652.135,-345.805 662.437,-348.279 661.731,-341.315"/>
</g>
<!-- Node42 -->
<g id="node42" class="node"><title>Node42</title>
<g id="a_node42"><a xlink:href="class_ogre_1_1_patch_mesh.html" target="_top" xlink:title="Patch specialisation of Mesh. ">
<polygon fill="none" stroke="black" points="543.5,-190.5 543.5,-209.5 636.5,-209.5 636.5,-190.5 543.5,-190.5"/>
<text text-anchor="middle" x="590" y="-197.5" font-family="Helvetica,sans-Serif" font-size="10.00">Ogre::PatchMesh</text>
</a>
</g>
</g>
<!-- Node41&#45;&gt;Node42 -->
<g id="edge41" class="edge"><title>Node41&#45;&gt;Node42</title>
<path fill="none" stroke="midnightblue" d="M450.691,-200C478.739,-200 515.094,-200 543.492,-200"/>
<polygon fill="midnightblue" stroke="midnightblue" points="450.382,-196.5 440.382,-200 450.382,-203.5 450.382,-196.5"/>
</g>
<!-- Node44 -->
<g id="node44" class="node"><title>Node44</title>
<g id="a_node44"><a xlink:href="class_ogre_1_1_skeleton_instance.html" target="_top" xlink:title="A SkeletonInstance is a single instance of a Skeleton used by a world object. ">
<polygon fill="none" stroke="black" points="530.5,-152.5 530.5,-171.5 649.5,-171.5 649.5,-152.5 530.5,-152.5"/>
<text text-anchor="middle" x="590" y="-159.5" font-family="Helvetica,sans-Serif" font-size="10.00">Ogre::SkeletonInstance</text>
</a>
</g>
</g>
<!-- Node43&#45;&gt;Node44 -->
<g id="edge43" class="edge"><title>Node43&#45;&gt;Node44</title>
<path fill="none" stroke="midnightblue" d="M457.464,-162C480.087,-162 506.911,-162 530.416,-162"/>
<polygon fill="midnightblue" stroke="midnightblue" points="457.392,-158.5 447.392,-162 457.392,-165.5 457.392,-158.5"/>
</g>
<!-- Node46 -->
<g id="node46" class="node"><title>Node46</title>
<g id="a_node46"><a xlink:href="class_ogre_1_1_d3_d11_texture.html" target="_top" xlink:title="Specialisation of Texture for D3D11. ">
<polygon fill="none" stroke="black" points="536.5,-114.5 536.5,-133.5 643.5,-133.5 643.5,-114.5 536.5,-114.5"/>
<text text-anchor="middle" x="590" y="-121.5" font-family="Helvetica,sans-Serif" font-size="10.00">Ogre::D3D11Texture</text>
</a>
</g>
</g>
<!-- Node45&#45;&gt;Node46 -->
<g id="edge45" class="edge"><title>Node45&#45;&gt;Node46</title>
<path fill="none" stroke="midnightblue" d="M454.831,-95.9866C482.176,-101.696 516.291,-108.819 543.277,-114.454"/>
<polygon fill="midnightblue" stroke="midnightblue" points="455.215,-92.4914 444.711,-93.8736 453.784,-99.3437 455.215,-92.4914"/>
</g>
<!-- Node47 -->
<g id="node47" class="node"><title>Node47</title>
<g id="a_node47"><a xlink:href="class_ogre_1_1_d3_d9_texture.html" target="_top" xlink:title="Ogre::D3D9Texture">
<polygon fill="none" stroke="black" points="539,-76.5 539,-95.5 641,-95.5 641,-76.5 539,-76.5"/>
<text text-anchor="middle" x="590" y="-83.5" font-family="Helvetica,sans-Serif" font-size="10.00">Ogre::D3D9Texture</text>
</a>
</g>
</g>
<!-- Node45&#45;&gt;Node47 -->
<g id="edge46" class="edge"><title>Node45&#45;&gt;Node47</title>
<path fill="none" stroke="midnightblue" d="M455.024,-86C480.877,-86 512.738,-86 538.903,-86"/>
<polygon fill="midnightblue" stroke="midnightblue" points="454.711,-82.5001 444.711,-86 454.71,-89.5001 454.711,-82.5001"/>
</g>
<!-- Node48 -->
<g id="node48" class="node"><title>Node48</title>
<g id="a_node48"><a xlink:href="class_ogre_1_1_g_l3_plus_texture.html" target="_top" xlink:title="Ogre::GL3PlusTexture">
<polygon fill="none" stroke="black" points="533,-38.5 533,-57.5 647,-57.5 647,-38.5 533,-38.5"/>
<text text-anchor="middle" x="590" y="-45.5" font-family="Helvetica,sans-Serif" font-size="10.00">Ogre::GL3PlusTexture</text>
</a>
</g>
</g>
<!-- Node45&#45;&gt;Node48 -->
<g id="edge47" class="edge"><title>Node45&#45;&gt;Node48</title>
<path fill="none" stroke="midnightblue" d="M454.831,-76.0134C482.176,-70.3039 516.291,-63.1809 543.277,-57.5465"/>
<polygon fill="midnightblue" stroke="midnightblue" points="453.784,-72.6563 444.711,-78.1264 455.215,-79.5086 453.784,-72.6563"/>
</g>
<!-- Node49 -->
<g id="node49" class="node"><title>Node49</title>
<g id="a_node49"><a xlink:href="class_ogre_1_1_g_l_texture.html" target="_top" xlink:title="Ogre::GLTexture">
<polygon fill="none" stroke="black" points="545.5,-0.5 545.5,-19.5 634.5,-19.5 634.5,-0.5 545.5,-0.5"/>
<text text-anchor="middle" x="590" y="-7.5" font-family="Helvetica,sans-Serif" font-size="10.00">Ogre::GLTexture</text>
</a>
</g>
</g>
<!-- Node45&#45;&gt;Node49 -->
<g id="edge48" class="edge"><title>Node45&#45;&gt;Node49</title>
<path fill="none" stroke="midnightblue" d="M432.004,-71.389C454.263,-58.8445 488.005,-40.947 519,-29 528.282,-25.4221 538.502,-22.243 548.196,-19.5574"/>
<polygon fill="midnightblue" stroke="midnightblue" points="430.162,-68.4103 423.209,-76.4045 433.63,-74.491 430.162,-68.4103"/>
</g>
</g>
</svg>
