<?xml version="1.0" encoding="UTF-8" standalone="no"?>
<!DOCTYPE svg PUBLIC "-//W3C//DTD SVG 1.1//EN"
 "http://www.w3.org/Graphics/SVG/1.1/DTD/svg11.dtd">
<!-- Generated by graphviz version 2.38.0 (20140413.2041)
 -->
<!-- Title: Ogre::HighLevelGpuProgram Pages: 1 -->
<svg width="721pt" height="230pt"
 viewBox="0.00 0.00 721.00 229.50" xmlns="http://www.w3.org/2000/svg" xmlns:xlink="http://www.w3.org/1999/xlink">
<g id="graph0" class="graph" transform="scale(1 1) rotate(0) translate(4 225.5)">
<title>Ogre::HighLevelGpuProgram</title>
<!-- Node1 -->
<g id="node1" class="node"><title>Node1</title>
<polygon fill="#bfbfbf" stroke="black" points="399,-107 399,-126 541,-126 541,-107 399,-107"/>
<text text-anchor="middle" x="470" y="-114" font-family="Helvetica,sans-Serif" font-size="10.00">Ogre::HighLevelGpuProgram</text>
</g>
<!-- Node6 -->
<g id="node6" class="node"><title>Node6</title>
<g id="a_node6"><a xlink:href="class_ogre_1_1_cg_program.html" target="_top" xlink:title="Specialisation of HighLevelGpuProgram to provide support for nVidia&#39;s CG language. ">
<polygon fill="none" stroke="black" points="598.5,-202 598.5,-221 691.5,-221 691.5,-202 598.5,-202"/>
<text text-anchor="middle" x="645" y="-209" font-family="Helvetica,sans-Serif" font-size="10.00">Ogre::CgProgram</text>
</a>
</g>
</g>
<!-- Node1&#45;&gt;Node6 -->
<g id="edge5" class="edge"><title>Node1&#45;&gt;Node6</title>
<path fill="none" stroke="midnightblue" d="M489.408,-132.761C509.609,-149.841 543.624,-176.411 577,-192.5 584.733,-196.228 593.33,-199.349 601.717,-201.914"/>
<polygon fill="midnightblue" stroke="midnightblue" points="491.502,-129.946 481.638,-126.08 486.938,-135.253 491.502,-129.946"/>
</g>
<!-- Node7 -->
<g id="node7" class="node"><title>Node7</title>
<g id="a_node7"><a xlink:href="class_ogre_1_1_d3_d11_h_l_s_l_program.html" target="_top" xlink:title="Specialization of HighLevelGpuProgram to provide support for D3D11 High&#45;Level Shader Language (HLSL)...">
<polygon fill="none" stroke="black" points="577,-164 577,-183 713,-183 713,-164 577,-164"/>
<text text-anchor="middle" x="645" y="-171" font-family="Helvetica,sans-Serif" font-size="10.00">Ogre::D3D11HLSLProgram</text>
</a>
</g>
</g>
<!-- Node1&#45;&gt;Node7 -->
<g id="edge6" class="edge"><title>Node1&#45;&gt;Node7</title>
<path fill="none" stroke="midnightblue" d="M505.693,-129.609C526.296,-137.225 553.003,-146.806 577,-154.5 587.247,-157.785 598.467,-161.083 608.745,-163.987"/>
<polygon fill="midnightblue" stroke="midnightblue" points="506.701,-126.25 496.108,-126.045 504.261,-132.811 506.701,-126.25"/>
</g>
<!-- Node8 -->
<g id="node8" class="node"><title>Node8</title>
<g id="a_node8"><a xlink:href="class_ogre_1_1_d3_d9_h_l_s_l_program.html" target="_top" xlink:title="Specialisation of HighLevelGpuProgram to provide support for D3D9 High&#45;Level Shader Language (HLSL)...">
<polygon fill="none" stroke="black" points="579.5,-126 579.5,-145 710.5,-145 710.5,-126 579.5,-126"/>
<text text-anchor="middle" x="645" y="-133" font-family="Helvetica,sans-Serif" font-size="10.00">Ogre::D3D9HLSLProgram</text>
</a>
</g>
</g>
<!-- Node1&#45;&gt;Node8 -->
<g id="edge7" class="edge"><title>Node1&#45;&gt;Node8</title>
<path fill="none" stroke="midnightblue" d="M551.433,-125.334C560.765,-126.359 570.19,-127.394 579.274,-128.391"/>
<polygon fill="midnightblue" stroke="midnightblue" points="551.688,-121.841 541.366,-124.228 550.924,-128.799 551.688,-121.841"/>
</g>
<!-- Node9 -->
<g id="node9" class="node"><title>Node9</title>
<g id="a_node9"><a xlink:href="class_ogre_1_1_g_l_s_l_1_1_g_l_s_l_program.html" target="_top" xlink:title="Specialisation of HighLevelGpuProgram to provide support for OpenGL Shader Language (GLSL)...">
<polygon fill="none" stroke="black" points="577,-88 577,-107 713,-107 713,-88 577,-88"/>
<text text-anchor="middle" x="645" y="-95" font-family="Helvetica,sans-Serif" font-size="10.00">Ogre::GLSL::GLSLProgram</text>
</a>
</g>
</g>
<!-- Node1&#45;&gt;Node9 -->
<g id="edge8" class="edge"><title>Node1&#45;&gt;Node9</title>
<path fill="none" stroke="midnightblue" d="M551.309,-107.68C559.827,-106.744 568.426,-105.8 576.773,-104.883"/>
<polygon fill="midnightblue" stroke="midnightblue" points="550.924,-104.201 541.366,-108.772 551.688,-111.159 550.924,-104.201"/>
</g>
<!-- Node10 -->
<g id="node10" class="node"><title>Node10</title>
<g id="a_node10"><a xlink:href="class_ogre_1_1_g_l_s_l_shader.html" target="_top" xlink:title="Specialisation of HighLevelGpuProgram to encapsulate shader objects obtained from compiled shaders wr...">
<polygon fill="none" stroke="black" points="595.5,-50 595.5,-69 694.5,-69 694.5,-50 595.5,-50"/>
<text text-anchor="middle" x="645" y="-57" font-family="Helvetica,sans-Serif" font-size="10.00">Ogre::GLSLShader</text>
</a>
</g>
</g>
<!-- Node1&#45;&gt;Node10 -->
<g id="edge9" class="edge"><title>Node1&#45;&gt;Node10</title>
<path fill="none" stroke="midnightblue" d="M505.693,-103.391C526.296,-95.7747 553.003,-86.1942 577,-78.5 587.247,-75.2146 598.467,-71.9171 608.745,-69.0131"/>
<polygon fill="midnightblue" stroke="midnightblue" points="504.261,-100.189 496.108,-106.955 506.701,-106.75 504.261,-100.189"/>
</g>
<!-- Node11 -->
<g id="node11" class="node"><title>Node11</title>
<g id="a_node11"><a xlink:href="class_ogre_1_1_unified_high_level_gpu_program.html" target="_top" xlink:title="Specialisation of HighLevelGpuProgram which just delegates its implementation to one other high level...">
<polygon fill="none" stroke="black" points="577,-0.5 577,-30.5 713,-30.5 713,-0.5 577,-0.5"/>
<text text-anchor="start" x="585" y="-18.5" font-family="Helvetica,sans-Serif" font-size="10.00">Ogre::UnifiedHighLevelGpu</text>
<text text-anchor="middle" x="645" y="-7.5" font-family="Helvetica,sans-Serif" font-size="10.00">Program</text>
</a>
</g>
</g>
<!-- Node1&#45;&gt;Node11 -->
<g id="edge10" class="edge"><title>Node1&#45;&gt;Node11</title>
<path fill="none" stroke="midnightblue" d="M490.332,-100.224C510.83,-83.5629 544.651,-57.7374 577,-40.5 583.793,-36.8802 591.226,-33.5474 598.59,-30.5748"/>
<polygon fill="midnightblue" stroke="midnightblue" points="487.901,-97.6919 482.407,-106.751 492.351,-103.095 487.901,-97.6919"/>
</g>
<!-- Node2 -->
<g id="node2" class="node"><title>Node2</title>
<g id="a_node2"><a xlink:href="class_ogre_1_1_gpu_program.html" target="_top" xlink:title="Defines a program which runs on the GPU such as a vertex or fragment program. ">
<polygon fill="none" stroke="black" points="265,-107 265,-126 363,-126 363,-107 265,-107"/>
<text text-anchor="middle" x="314" y="-114" font-family="Helvetica,sans-Serif" font-size="10.00">Ogre::GpuProgram</text>
</a>
</g>
</g>
<!-- Node2&#45;&gt;Node1 -->
<g id="edge1" class="edge"><title>Node2&#45;&gt;Node1</title>
<path fill="none" stroke="midnightblue" d="M373.307,-116.5C381.659,-116.5 390.322,-116.5 398.872,-116.5"/>
<polygon fill="midnightblue" stroke="midnightblue" points="373.304,-113 363.304,-116.5 373.304,-120 373.304,-113"/>
</g>
<!-- Node3 -->
<g id="node3" class="node"><title>Node3</title>
<g id="a_node3"><a xlink:href="class_ogre_1_1_resource.html" target="_top" xlink:title="Abstract class representing a loadable resource (e.g. ">
<polygon fill="none" stroke="black" points="143,-107 143,-126 229,-126 229,-107 143,-107"/>
<text text-anchor="middle" x="186" y="-114" font-family="Helvetica,sans-Serif" font-size="10.00">Ogre::Resource</text>
</a>
</g>
</g>
<!-- Node3&#45;&gt;Node2 -->
<g id="edge2" class="edge"><title>Node3&#45;&gt;Node2</title>
<path fill="none" stroke="midnightblue" d="M239.441,-116.5C247.889,-116.5 256.599,-116.5 264.938,-116.5"/>
<polygon fill="midnightblue" stroke="midnightblue" points="239.307,-113 229.307,-116.5 239.307,-120 239.307,-113"/>
</g>
<!-- Node4 -->
<g id="node4" class="node"><title>Node4</title>
<g id="a_node4"><a xlink:href="class_ogre_1_1_string_interface.html" target="_top" xlink:title="Class defining the common interface which classes can use to present a reflection&#45;style, self&#45;defining parameter set to callers. ">
<polygon fill="none" stroke="black" points="0,-126 0,-145 107,-145 107,-126 0,-126"/>
<text text-anchor="middle" x="53.5" y="-133" font-family="Helvetica,sans-Serif" font-size="10.00">Ogre::StringInterface</text>
</a>
</g>
</g>
<!-- Node4&#45;&gt;Node3 -->
<g id="edge3" class="edge"><title>Node4&#45;&gt;Node3</title>
<path fill="none" stroke="midnightblue" d="M117.331,-126.352C126.011,-125.088 134.749,-123.816 142.929,-122.625"/>
<polygon fill="midnightblue" stroke="midnightblue" points="116.595,-122.922 107.203,-127.827 117.603,-129.849 116.595,-122.922"/>
</g>
<!-- Node5 -->
<g id="node5" class="node"><title>Node5</title>
<g id="a_node5"><a xlink:href="class_ogre_1_1_allocated_object.html" target="_top" xlink:title="Superclass for all objects that wish to use custom memory allocators when their new / delete operator...">
<polygon fill="none" stroke="black" points="13.5,-88 13.5,-107 93.5,-107 93.5,-88 13.5,-88"/>
<text text-anchor="middle" x="53.5" y="-95" font-family="Helvetica,sans-Serif" font-size="10.00">ResourceAlloc</text>
</a>
</g>
</g>
<!-- Node5&#45;&gt;Node3 -->
<g id="edge4" class="edge"><title>Node5&#45;&gt;Node3</title>
<path fill="none" stroke="midnightblue" d="M103.713,-104.665C116.542,-106.533 130.253,-108.529 142.69,-110.34"/>
<polygon fill="midnightblue" stroke="midnightblue" points="104.054,-101.178 93.6543,-103.201 103.046,-108.105 104.054,-101.178"/>
</g>
</g>
</svg>
