<?xml version="1.0" encoding="UTF-8" standalone="no"?>
<!DOCTYPE svg PUBLIC "-//W3C//DTD SVG 1.1//EN"
 "http://www.w3.org/Graphics/SVG/1.1/DTD/svg11.dtd">
<!-- Generated by graphviz version 2.38.0 (20140413.2041)
 -->
<!-- Title: Graphical Class Hierarchy Pages: 1 -->
<svg width="313pt" height="66pt"
 viewBox="0.00 0.00 313.00 66.00" xmlns="http://www.w3.org/2000/svg" xmlns:xlink="http://www.w3.org/1999/xlink">
<g id="graph0" class="graph" transform="scale(1 1) rotate(0) translate(4 62)">
<title>Graphical Class Hierarchy</title>
<!-- Node1 -->
<g id="node1" class="node"><title>Node1</title>
<g id="a_node1"><a xlink:href="class_ogre_1_1_resource_group_listener.html" target="_top" xlink:title="This abstract class defines an interface which is called back during resource group loading to indica...">
<polygon fill="none" stroke="black" points="0,-38.5 0,-57.5 146,-57.5 146,-38.5 0,-38.5"/>
<text text-anchor="middle" x="73" y="-45.5" font-family="Helvetica,sans-Serif" font-size="10.00">Ogre::ResourceGroupListener</text>
</a>
</g>
</g>
<!-- Node2 -->
<g id="node2" class="node"><title>Node2</title>
<g id="a_node2"><a xlink:href="class_ogre_bites_1_1_tray_manager.html" target="_top" xlink:title="Main class to manage a cursor, backdrop, trays and widgets. ">
<polygon fill="none" stroke="black" points="182,-19.5 182,-38.5 305,-38.5 305,-19.5 182,-19.5"/>
<text text-anchor="middle" x="243.5" y="-26.5" font-family="Helvetica,sans-Serif" font-size="10.00">OgreBites::TrayManager</text>
</a>
</g>
</g>
<!-- Node1&#45;&gt;Node2 -->
<g id="edge1" class="edge"><title>Node1&#45;&gt;Node2</title>
<path fill="none" stroke="midnightblue" d="M156.425,-38.7058C164.961,-37.7433 173.522,-36.778 181.757,-35.8494"/>
<polygon fill="midnightblue" stroke="midnightblue" points="155.982,-35.2335 146.437,-39.832 156.766,-42.1894 155.982,-35.2335"/>
</g>
<!-- Node3 -->
<g id="node3" class="node"><title>Node3</title>
<g id="a_node3"><a xlink:href="class_ogre_bites_1_1_tray_listener.html" target="_top" xlink:title="Listener class for responding to tray events. ">
<polygon fill="none" stroke="black" points="13,-0.5 13,-19.5 133,-19.5 133,-0.5 13,-0.5"/>
<text text-anchor="middle" x="73" y="-7.5" font-family="Helvetica,sans-Serif" font-size="10.00">OgreBites::TrayListener</text>
</a>
</g>
</g>
<!-- Node3&#45;&gt;Node2 -->
<g id="edge2" class="edge"><title>Node3&#45;&gt;Node2</title>
<path fill="none" stroke="midnightblue" d="M143.506,-17.8375C156.252,-19.2747 169.463,-20.7644 181.922,-22.1693"/>
<polygon fill="midnightblue" stroke="midnightblue" points="143.736,-14.3413 133.407,-16.6987 142.952,-21.2972 143.736,-14.3413"/>
</g>
</g>
</svg>
