<?xml version="1.0" encoding="UTF-8" standalone="no"?>
<!DOCTYPE svg PUBLIC "-//W3C//DTD SVG 1.1//EN"
 "http://www.w3.org/Graphics/SVG/1.1/DTD/svg11.dtd">
<!-- Generated by graphviz version 2.38.0 (20140413.2041)
 -->
<!-- Title: Graphical Class Hierarchy Pages: 1 -->
<svg width="298pt" height="66pt"
 viewBox="0.00 0.00 298.00 66.00" xmlns="http://www.w3.org/2000/svg" xmlns:xlink="http://www.w3.org/1999/xlink">
<g id="graph0" class="graph" transform="scale(1 1) rotate(0) translate(4 62)">
<title>Graphical Class Hierarchy</title>
<!-- Node1 -->
<g id="node1" class="node"><title>Node1</title>
<g id="a_node1"><a xlink:href="class_ogre_1_1_g_l_s_l_program.html" target="_top" xlink:title="C++ encapsulation of GLSL program object. ">
<polygon fill="none" stroke="black" points="0,-19.5 0,-38.5 105,-38.5 105,-19.5 0,-19.5"/>
<text text-anchor="middle" x="52.5" y="-26.5" font-family="Helvetica,sans-Serif" font-size="10.00">Ogre::GLSLProgram</text>
</a>
</g>
</g>
<!-- Node2 -->
<g id="node2" class="node"><title>Node2</title>
<g id="a_node2"><a xlink:href="class_ogre_1_1_g_l_s_l_monolithic_program.html" target="_top" xlink:title="Model of OpenGL program object created using the glLinkProgram method of linking. ...">
<polygon fill="none" stroke="black" points="141,-38.5 141,-57.5 290,-57.5 290,-38.5 141,-38.5"/>
<text text-anchor="middle" x="215.5" y="-45.5" font-family="Helvetica,sans-Serif" font-size="10.00">Ogre::GLSLMonolithicProgram</text>
</a>
</g>
</g>
<!-- Node1&#45;&gt;Node2 -->
<g id="edge1" class="edge"><title>Node1&#45;&gt;Node2</title>
<path fill="none" stroke="midnightblue" d="M115.324,-36.2961C123.656,-37.2793 132.27,-38.2959 140.782,-39.3004"/>
<polygon fill="midnightblue" stroke="midnightblue" points="115.669,-32.8125 105.328,-35.1163 114.848,-39.7643 115.669,-32.8125"/>
</g>
<!-- Node3 -->
<g id="node3" class="node"><title>Node3</title>
<g id="a_node3"><a xlink:href="class_ogre_1_1_g_l_s_l_separable_program.html" target="_top" xlink:title="Specialisation of GLSLProgram to provide support for separable programs via the OpenGL program pipeli...">
<polygon fill="none" stroke="black" points="141,-0.5 141,-19.5 290,-19.5 290,-0.5 141,-0.5"/>
<text text-anchor="middle" x="215.5" y="-7.5" font-family="Helvetica,sans-Serif" font-size="10.00">Ogre::GLSLSeparableProgram</text>
</a>
</g>
</g>
<!-- Node1&#45;&gt;Node3 -->
<g id="edge2" class="edge"><title>Node1&#45;&gt;Node3</title>
<path fill="none" stroke="midnightblue" d="M115.324,-21.7039C123.656,-20.7207 132.27,-19.7041 140.782,-18.6996"/>
<polygon fill="midnightblue" stroke="midnightblue" points="114.848,-18.2357 105.328,-22.8837 115.669,-25.1875 114.848,-18.2357"/>
</g>
</g>
</svg>
